<svg xmlns="http://www.w3.org/2000/svg" viewBox="0 0 3.58 2.76"><defs><style>.cls-1{fill:#17a7d0;}</style></defs><title>Ресурс 1</title><g id="Слой_2" data-name="Слой 2"><g id="Layer_1" data-name="Layer 1"><path class="cls-1" d="M2.85.13A1.14,1.14,0,0,1,3.3.65,3,3,0,0,1,3.43,1l.09.39c0,.14,0,.27,0,.4s0,.25,0,.38a.6.6,0,0,1-.07.27.52.52,0,0,1-.73.24.78.78,0,0,1-.2-.16l-.12-.2A.89.89,0,0,0,2.19,2h0a.79.79,0,0,0-.8,0,.89.89,0,0,0-.27.33L1,2.53a.78.78,0,0,1-.2.16h0A.55.55,0,0,1,0,2.18c0-.13,0-.26,0-.38s0-.26,0-.4S.11,1.14.15,1A3,3,0,0,1,.28.65,1.14,1.14,0,0,1,.73.13,1.27,1.27,0,0,1,1.53,0l.26,0,.26,0a1.27,1.27,0,0,1,.8.12ZM1.58,1.47h0a.08.08,0,0,1-.08-.08.09.09,0,0,1,.08-.08H2a.09.09,0,0,1,.09.08A.08.08,0,0,1,2,1.47Zm0-.75h0A.09.09,0,0,1,1.5.64.09.09,0,0,1,1.58.55H2a.09.09,0,0,1,.09.09A.09.09,0,0,1,2,.72ZM1,.64H1A.09.09,0,0,1,1.1.55a.09.09,0,0,1,.09.09V.93h.29A.09.09,0,0,1,1.57,1a.09.09,0,0,1-.09.09H1.19v.29a.09.09,0,0,1-.09.09A.09.09,0,0,1,1,1.39V1.1H.73A.09.09,0,0,1,.64,1,.09.09,0,0,1,.73.93H1V.64ZM2.5.64h0a.13.13,0,0,1,.14.13A.14.14,0,0,1,2.5.91.14.14,0,0,1,2.36.77.14.14,0,0,1,2.5.64ZM2.4,1h0a.14.14,0,0,1-.14.14A.14.14,0,0,1,2.12,1,.14.14,0,0,1,2.26.88.13.13,0,0,1,2.4,1Zm.1.11h0a.14.14,0,0,1,.14.14.13.13,0,0,1-.14.13.14.14,0,0,1-.14-.13.14.14,0,0,1,.14-.14ZM2.88,1h0a.14.14,0,0,1-.14.14A.14.14,0,0,1,2.6,1,.14.14,0,0,1,2.74.88.13.13,0,0,1,2.88,1ZM2.71.37h0A1,1,0,0,0,2.07.29H1.51A1,1,0,0,0,.87.37.81.81,0,0,0,.53.76a2.55,2.55,0,0,0-.11.33,2.11,2.11,0,0,0-.09.36c0,.12,0,.25,0,.37a2.08,2.08,0,0,0,0,.35h0a.38.38,0,0,0,0,.16.27.27,0,0,0,.47,0l.09-.15a1.11,1.11,0,0,1,.36-.43,1.08,1.08,0,0,1,1.11,0h0a1.2,1.2,0,0,1,.36.43l.09.15a.27.27,0,0,0,.47,0,.38.38,0,0,0,0-.16,2.08,2.08,0,0,0,0-.35c0-.12,0-.25,0-.37a2.11,2.11,0,0,0-.09-.36A2.55,2.55,0,0,0,3.05.76.81.81,0,0,0,2.71.37Z"/></g></g></svg>