<svg xmlns="http://www.w3.org/2000/svg" viewBox="0 0 3.33 3.58"><defs><style>.cls-1{fill:#17a7d0;}</style></defs><title>Layer 1</title><g id="Слой_2" data-name="Слой 2"><g id="Layer_1" data-name="Layer 1"><path class="cls-1" d="M.91,2.38h1.7a.09.09,0,0,0,.08-.08.08.08,0,0,0-.08-.08H.91a.08.08,0,0,0-.09.08.09.09,0,0,0,.09.08Zm0,.53h1.7a.08.08,0,0,0,0-.16H.91a.08.08,0,1,0,0,.16ZM3.19,1.55H.91L3.11.88A.14.14,0,0,0,3.2.71L3,.1A.13.13,0,0,0,2.84,0L.1.84A.12.12,0,0,0,0,1l.18.62h0a.07.07,0,0,0,0,.05V3.44a.13.13,0,0,0,.13.14H3.19a.14.14,0,0,0,.14-.14V1.69a.14.14,0,0,0-.14-.14ZM2.59.37h0l.2-.06.1.35-.4.12.1-.41ZM2,.55H2L2.4.43,2.31.84,1.88,1,2,.55ZM1.37.74h0L1.8.61,1.7,1l-.43.13.1-.41ZM.76.93h0L1.19.8l-.1.41-.43.13L.76.93Zm-.45.13h0L.58,1l-.1.41-.06,0L.31,1.06ZM3.05,3.3H.46V1.82H3.05V3.3Z"/></g></g></svg>