<svg xmlns="http://www.w3.org/2000/svg" viewBox="0 0 3.58 3.57"><defs><style>.cls-1{fill:#17a7d0;}</style></defs><title>Ресурс 3</title><g id="Слой_2" data-name="Слой 2"><g id="Layer_1" data-name="Layer 1"><path class="cls-1" d="M3.52,1.32A1.81,1.81,0,0,0,2.69.24h0A1.79,1.79,0,0,0,.25.88h0A1.78,1.78,0,0,0,.89,3.33h0a1.79,1.79,0,0,0,2.44-.64h0a1.87,1.87,0,0,0,.18-1.36Zm-1-.84h0a1.56,1.56,0,0,1,.57.6l-.23,0L2.49.64,2.56.48ZM.88,1.66h0l.58-.12.47.57-.2.51-.29.09a1,1,0,0,1-.3,0,1.11,1.11,0,0,1-.26-.2,1.74,1.74,0,0,1-.19-.26c0-.11.05-.22.08-.33a1.21,1.21,0,0,1,.11-.3ZM.7,1.06h0A1.45,1.45,0,0,1,1.18.67L1.55.8l-.14.59L.87,1.5.7,1.06Zm.88.37h0l.15-.6L2.37.75l.43.48-.18.62L2.05,2l-.47-.57Zm.83-1h0L2.34.58,1.66.66,1.21.51l0-.11a1.53,1.53,0,0,1,1.24,0ZM1,.48H1l0,.07A2,2,0,0,0,.57,1h0A1.46,1.46,0,0,1,1,.48ZM.33,2.18h0A1.46,1.46,0,0,1,.44,1.1l.1,0,.19.47a1.75,1.75,0,0,0-.12.32c0,.11-.06.21-.08.32l-.18,0a.29.29,0,0,1,0-.09ZM1,3.05H1a1.49,1.49,0,0,1-.54-.63l.14,0a1.89,1.89,0,0,0,.2.27A1.09,1.09,0,0,0,1,2.87L1,3.05Zm1.28.18h0l-.06,0a1.53,1.53,0,0,1-1.07-.11l.07-.23a1.43,1.43,0,0,0,.29,0,2,2,0,0,0,.32-.11L2.26,3l0,.21ZM1.9,2.64h0l.18-.48L2.64,2l.17.49a1.8,1.8,0,0,1-.19.2,1.59,1.59,0,0,1-.27.18L1.9,2.64Zm1.19-.09h0a1.51,1.51,0,0,1-.68.62l0-.14a1.87,1.87,0,0,0,.29-.2A1.34,1.34,0,0,0,3,2.58l.15,0Zm.11-.21h0L3,2.41l-.18-.5L3,1.26l.23,0a.88.88,0,0,1,0,.15,1.55,1.55,0,0,1,0,1Z"/></g></g></svg>