<svg xmlns="http://www.w3.org/2000/svg" viewBox="0 0 3.58 3.58"><defs><style>.cls-1{fill:#17a7d0;}</style></defs><title>Layer 1</title><g id="Слой_2" data-name="Слой 2"><g id="Layer_1" data-name="Layer 1"><path class="cls-1" d="M1.79,0A1.78,1.78,0,0,1,3.05.52h0a1.78,1.78,0,0,1,.53,1.27,1.75,1.75,0,0,1-.53,1.26H3a1.77,1.77,0,0,1-2.52,0h0A1.78,1.78,0,0,1,0,1.79,1.81,1.81,0,0,1,.52.52h0A1.78,1.78,0,0,1,1.79,0ZM1.54.29h0s0,.06,0,.09a1,1,0,0,1-.17.49s-.27.2-.27.25h.25a.71.71,0,0,1,.33.09.59.59,0,0,1,.2.18.32.32,0,0,1,.06.27.47.47,0,0,1-.11.19c-.2.23-.2.25-.18.36s0,.11,0,.19v.14a1.86,1.86,0,0,1,0,.26h0c0,.4-.39.11-.52,0a2.28,2.28,0,0,1-.3-.43S.77,2.31.72,2.28a.39.39,0,0,1-.29-.36,1.29,1.29,0,0,1,0-.34s0-.05,0-.05a.31.31,0,0,0-.13,0l-.09,0a1.64,1.64,0,0,0,0,.23A1.54,1.54,0,0,0,.72,2.86h0a1.54,1.54,0,0,0,.57.36c.13,0,.26-.09.39-.11a1.6,1.6,0,0,1,.84,0,1.65,1.65,0,0,0,.33-.24h0a2.43,2.43,0,0,0,.2-.25.69.69,0,0,1-.17.11.19.19,0,0,1-.19,0l0,0h0c-.12-.14-.06-.33,0-.53s.14-.42-.13-.5l-.12,0a.7.7,0,0,1-.23-.22c-.13-.21,0-.33.09-.48s0-.05.06-.06S2.09.87,2,.69c0,0,0-.06,0-.08H2C2,.45,1.9.38,1.8.28H1.54ZM.33,1.38h0a.42.42,0,0,1,.22,0c.13,0,.11.12.08.25a.78.78,0,0,0,0,.29c0,.13.1.18.19.23A.4.4,0,0,1,1,2.3a1.72,1.72,0,0,0,.26.39s.22.26.24.11a1.92,1.92,0,0,0,0-.24V2.42c0-.08,0-.13,0-.18s0-.21.22-.49a.25.25,0,0,0,.07-.12.17.17,0,0,0,0-.14.36.36,0,0,0-.15-.12.52.52,0,0,0-.25-.08h0c-.33,0-.41,0-.42-.17s.22-.27.32-.37A1,1,0,0,0,1.37.36v0A1.69,1.69,0,0,0,.72.71h0a1.53,1.53,0,0,0-.39.66ZM2.27,3.22h0a2.12,2.12,0,0,0-.56,0l-.09,0h.17a1.27,1.27,0,0,0,.48-.08Zm1-1.11h0l0,0a1.36,1.36,0,0,0,0-.29A1.51,1.51,0,0,0,2.86.72h0A1.58,1.58,0,0,0,2,.29a.55.55,0,0,1,.13.29h0a.07.07,0,0,0,0,.05h0c0,.07.1.07.15.06s.16,0,.19.09S2.48,1,2.4,1s-.16.15-.07.28a.38.38,0,0,0,.17.16l.09,0c.43.13.33.43.23.71s-.09.29,0,.37l0,0A.44.44,0,0,0,3,2.47a1.32,1.32,0,0,0,.28-.36ZM2.35.84h0s0,0,0,0,0,0,0,0Z"/></g></g></svg>